<svg xmlns="http://www.w3.org/2000/svg" enable-background="new 0 0 3000 3000" viewBox="0 0 3000 3000" id="lottery-winners">
  <switch>
    <g>
      <g>
        <g>
          <g>
            <g opacity=".1">
              <polygon points="1368.02 1711.804 809.399 2050.195 308.306 1769.828 866.927 1431.436"></polygon>
            </g>
            <g>
              <g>
                <polygon fill="#e6e6e6" points="1415.509 1610.616 1322.94 1666.475 1040.444 1503.366 1133.013 1447.507"></polygon>
              </g>
              <g>
                <g>
                  <path fill="#d1d1d1" d="M1347.308,1165.325l-47.841,27.805c10.196,61.595,23.066,433.387,23.743,442.384
									l47.842-27.804C1370.374,1598.713,1357.505,1226.92,1347.308,1165.325z"></path>
                  <path fill="#f0f0f0" d="M1246.879,1005.266c-27.342-15.787-50.379-14.116-67.634-4.088l-47.841,27.804
									c17.254-10.028,40.291-11.699,67.633,4.088c55.622,32.115,93.113,115.726,100.43,160.059l47.841-27.805
									C1339.992,1120.992,1302.501,1037.381,1246.879,1005.266z"></path>
                  <g>
                    <path fill="#595959" d="M1199.037,1033.07c55.622,32.115,93.113,115.726,100.429,160.059
										c10.196,61.595,23.066,433.388,23.744,442.385l-250.179-144.45c0.726-8.187,14.522-364.583,25.033-414.222
										C1105.608,1041.089,1143.415,1000.955,1199.037,1033.07z"></path>
                  </g>
                </g>
              </g>
            </g>
            <g opacity=".5">
              <g>
                <g>
                  <polygon fill="#fff" points="891.567 1588.148 1490.793 1239.894 1364.363 1417.54 765.138 1765.795"></polygon>
                </g>
                <g>
                  <polygon fill="#f4f4f4" points="766.556 1265.324 1365.782 917.069 1490.793 1239.894 891.567 1588.148"></polygon>
                </g>
                <g>
                  <polygon fill="#c2daff" points="515.09 1120.13 1114.316 771.876 1365.782 917.069 766.556 1265.324"></polygon>
                </g>
                <g>
                  <polygon fill="#c2daff" points="766.556 1265.324 891.567 1588.148 765.138 1765.795 513.671 1620.601 388.661 1297.776 515.09 1120.13"></polygon>
                </g>
              </g>
            </g>
            <g>
              <path fill="#fff" d="M516.281,1125.829l246.821,142.512l123.643,319.292l-122.86,172.632l-246.821-142.512
							l-123.642-319.292L516.281,1125.829L516.281,1125.829z M515.059,1120.215L388.63,1297.861l125.01,322.824l251.467,145.194
							l126.429-177.646l-125.01-322.824L515.059,1120.215L515.059,1120.215z"></path>
            </g>
            <g>
              <path fill="#fff" d="M1475.895,1253.535l-114.493,160.875l-581.429,337.912l114.493-160.875L1475.895,1253.535
							L1475.895,1253.535z M1490.762,1239.978l-599.226,348.255l-126.429,177.646l599.226-348.255L1490.762,1239.978
							L1490.762,1239.978z"></path>
            </g>
            <g>
              <path fill="#fff" d="M985.418,955.814l121.902,314.796L515.536,1614.54l-121.902-314.797L985.418,955.814
							L985.418,955.814z M987.585,949.638l-599.226,348.255l125.01,322.824l599.226-348.254L987.585,949.638L987.585,949.638z"></path>
            </g>
            <g>
              <path fill="#fff" d="M1114.974,777.599l246.821,142.512l123.643,319.292l-122.86,172.632l-246.821-142.512
							L992.114,950.23L1114.974,777.599L1114.974,777.599z M1113.752,771.984L987.323,949.63l125.01,322.825l251.467,145.194
							l126.429-177.646l-125.01-322.825L1113.752,771.984L1113.752,771.984z"></path>
            </g>
            <g>
              <g>
                <g>
                  <g>
                    <g>
                      <ellipse cx="745.77" cy="1322.411" fill="#ffa6ff" rx="87.843" ry="87.836" transform="rotate(-89.358 745.76 1322.45)"></ellipse>
                      <g>
                        <path fill="#fff" d="M778.364,1366.063c-5.069,2.593-4.816,7.934-1.626,8.902
												c3.491,1.06,8.334-3.024,6.498-6.628C782.01,1365.934,778.397,1366.056,778.364,1366.063L778.364,1366.063z
												 M777.831,1349.079c-4.308,1.195-4.738,5.922-1.615,7.572c1.421,0.751,3.179,0.852,3.195,0.852
												c0.002,0,0.39-0.124,1.148-0.82c0.103-0.094,2.499-2.34,1.472-5.371C781.728,1350.42,780.713,1348.415,777.831,1349.079
												L777.831,1349.079z M756.268,1315.594c-39,5.283-64.378,51.625-31.494,76.037c32.738,24.305,87.764-6.102,79.564-43.967
												C799.929,1327.302,775.323,1313.939,756.268,1315.594L756.268,1315.594z"></path>
                      </g>
                      <path fill="#e3e3e3" d="M753.293,1388.311c-43.741,0-80.93-27.642-95.336-66.369
											c-0.001,0.158-0.024,0.311-0.024,0.469c0,48.514,39.325,87.843,87.836,87.843c36.113,0,67.106-21.812,80.604-52.966
											C807.868,1376.392,781.991,1388.311,753.293,1388.311z"></path>
                    </g>
                    <path fill="#969696" d="M810.658,1291.793c-5.185,8.308-22.343,6.956-38.323-3.02
										c-15.981-9.976-24.732-24.798-19.547-33.106c5.185-8.308,22.343-6.956,38.323,3.02
										C807.092,1268.663,815.843,1283.485,810.658,1291.793z"></path>
                  </g>
                </g>
              </g>
              <g>
                <g>
                  <g>
                    <g>
                      <ellipse cx="866.412" cy="1418.368" fill="#ffc77a" rx="87.842" ry="87.836" transform="rotate(-87.61 866.48 1418.422)"></ellipse>
                      <g>
                        <path fill="#fff" d="M844.289,1405.71c-35.605-5.868-63.062,27.997-38.856,62.316
												c23.784,33.72,72.02,32.153,79.405-2.58C890.549,1438.58,864.387,1410.079,844.289,1405.71L844.289,1405.71z"></path>
                      </g>
                      <path fill="#e3e3e3" d="M873.935,1484.267c-43.741,0-80.93-27.642-95.336-66.369
											c-0.001,0.158-0.024,0.31-0.024,0.469c0,48.514,39.325,87.843,87.836,87.843c36.113,0,67.106-21.811,80.604-52.966
											C928.51,1472.349,902.633,1484.267,873.935,1484.267z"></path>
                    </g>
                    <path fill="#969696" d="M931.3,1387.749c-5.185,8.308-22.343,6.956-38.324-3.02
										c-15.98-9.976-24.732-24.798-19.546-33.105c5.185-8.308,22.343-6.956,38.323,3.02
										C927.734,1364.62,936.485,1379.441,931.3,1387.749z"></path>
                  </g>
                </g>
              </g>
              <g>
                <g>
                  <g>
                    <g>
                      <ellipse cx="562.294" cy="1273.13" fill="#89c77a" rx="87.843" ry="87.836" transform="rotate(-89.095 562.265 1273.093)"></ellipse>
                      <g>
                        <path fill="#fff" d="M540.171,1260.472c-35.605-5.868-63.062,27.997-38.856,62.316
												c23.784,33.72,72.021,32.153,79.405-2.58C586.431,1293.342,560.269,1264.842,540.171,1260.472L540.171,1260.472z"></path>
                      </g>
                      <path fill="#e3e3e3" d="M569.817,1339.03c-43.742,0-80.93-27.642-95.336-66.369
											c-0.001,0.158-0.024,0.311-0.024,0.469c0,48.514,39.325,87.843,87.836,87.843c36.113,0,67.106-21.812,80.604-52.966
											C624.392,1327.111,598.514,1339.03,569.817,1339.03z"></path>
                    </g>
                    <path fill="#969696" d="M627.182,1242.512c-5.185,8.308-22.343,6.956-38.324-3.02
										c-15.98-9.976-24.732-24.798-19.546-33.106c5.185-8.308,22.343-6.956,38.323,3.02
										C623.616,1219.382,632.367,1234.204,627.182,1242.512z"></path>
                  </g>
                </g>
              </g>
              <g>
                <g>
                  <g>
                    <g>
                      <ellipse cx="808.565" cy="1596.855" fill="#a2c7e5" rx="87.837" ry="87.842" transform="rotate(-1.985 807.538 1597.368)"></ellipse>
                      <g>
                        <path fill="#fff" d="M821.035,1574.625c5.568-35.656-28.525-62.828-62.637-38.332
												c-33.517,24.069-31.543,72.293,3.249,79.385C788.558,1621.163,816.835,1594.76,821.035,1574.625L821.035,1574.625z"></path>
                      </g>
                      <path fill="#e3e3e3" d="M742.735,1604.934c-0.368-43.743,26.957-81.165,65.559-95.898
											c-0.158,0.001-0.311-0.021-0.469-0.02c-48.509,0.408-87.503,40.066-87.094,88.578
											c0.304,36.114,22.374,66.924,53.639,80.161C755.112,1659.41,742.977,1633.632,742.735,1604.934z"></path>
                    </g>
                    <path fill="#969696" d="M839.727,1661.487c-8.351-5.115-7.143-22.285,2.697-38.35
										c9.84-16.065,24.587-24.941,32.938-19.826c8.351,5.115,7.143,22.285-2.697,38.35S848.078,1666.602,839.727,1661.487z"></path>
                  </g>
                </g>
              </g>
              <g>
                <g>
                  <g>
                    <g>
                      <ellipse cx="952.393" cy="1165.629" fill="#d7d7d7" rx="87.836" ry="87.842" transform="rotate(-1.713 951.858 1164.992)"></ellipse>
                      <g>
                        <path fill="#fff" d="M974.516,1152.97c35.605-5.868,63.062,27.997,38.856,62.316
												c-23.784,33.72-72.02,32.153-79.405-2.58C928.256,1185.84,954.418,1157.341,974.516,1152.97L974.516,1152.97z"></path>
                      </g>
                      <path fill="#e3e3e3" d="M944.87,1231.528c43.741,0,80.93-27.642,95.336-66.369c0.001,0.158,0.023,0.31,0.023,0.469
											c0,48.514-39.325,87.843-87.836,87.843c-36.113,0-67.106-21.811-80.604-52.966
											C890.295,1219.609,916.172,1231.528,944.87,1231.528z"></path>
                    </g>
                    <path fill="#969696" d="M887.505,1135.01c5.185,8.308,22.343,6.956,38.324-3.02
										c15.98-9.976,24.732-24.798,19.547-33.106c-5.185-8.308-22.343-6.956-38.323,3.02
										C891.071,1111.88,882.32,1126.702,887.505,1135.01z"></path>
                  </g>
                </g>
              </g>
              <g>
                <g>
                  <g>
                    <g>
                      <ellipse cx="1036.633" cy="1492.745" fill="#ffc77a" rx="87.836" ry="87.843" transform="rotate(-.647 1040.868 1498.775)"></ellipse>
                      <g>
                        <path fill="#fff" d="M1058.756,1480.086c35.605-5.868,63.062,27.997,38.856,62.316
												c-23.784,33.72-72.021,32.153-79.404-2.58C1012.495,1512.956,1038.657,1484.456,1058.756,1480.086L1058.756,1480.086z"></path>
                      </g>
                      <path fill="#e3e3e3" d="M1029.109,1558.644c43.741,0,80.93-27.642,95.336-66.369
											c0.001,0.158,0.024,0.311,0.024,0.469c0,48.514-39.325,87.843-87.836,87.843c-36.113,0-67.106-21.811-80.605-52.966
											C974.534,1546.725,1000.412,1558.644,1029.109,1558.644z"></path>
                    </g>
                    <path fill="#969696" d="M971.744,1462.126c5.185,8.308,22.343,6.956,38.323-3.02s24.732-24.798,19.546-33.105
										c-5.185-8.308-22.343-6.956-38.323,3.02C975.31,1438.996,966.559,1453.818,971.744,1462.126z"></path>
                  </g>
                </g>
              </g>
            </g>
            <g>
              <path fill="#d9d9d9" d="M610.563,1363.795c55.622,32.116,93.113,115.726,100.429,160.059
							c10.196,61.595,23.066,232.534,23.743,223.224l-250.179-144.45c0.726,10.12,14.521-145.422,25.033-195.061
							C517.134,1371.814,554.941,1331.679,610.563,1363.795z"></path>
            </g>
            <g>
              <g>
                <g>
                  <path fill="#5e5e5e" d="M624.002,1538.605c30.142,17.404,54.662,3.43,54.761-31.208
									c0.098-34.646-24.263-76.843-54.405-94.247c-30.149-17.408-54.669-3.433-54.768,31.213
									C569.492,1479,593.853,1521.197,624.002,1538.605L624.002,1538.605z"></path>
                </g>
              </g>
            </g>
            <g>
              <g>
                <g>
                  <polygon fill="#898989" points="647.889 1488.577 635.918 1457.632 611.805 1443.709 599.697 1460.751 611.669 1491.657 627.349 1500.711 647.652 1488.911"></polygon>
                  <polygon fill="#898989" points="647.652 1488.911 627.349 1500.711 635.782 1505.58"></polygon>
                  <polygon fill="#878787" points="627.349 1500.711 568.17 1535.104 556.063 1552.107 635.782 1505.58 647.652 1488.911"></polygon>
                  <polygon fill="#f4f4f4" points="635.98 1457.791 605.429 1475.547 556.199 1504.158 568.17 1535.104 627.349 1500.711 647.652 1488.911 647.889 1488.577"></polygon>
                  <g>
                    <polygon fill="#bfbfbf" points="635.918 1457.632 611.805 1443.709 611.568 1444.042 532.085 1490.235 556.199 1504.158 605.429 1475.547 635.98 1457.791"></polygon>
                    <polygon fill="#898989" points="611.805 1443.709 611.568 1444.042 611.974 1443.807"></polygon>
                  </g>
                  <g>
                    <polygon fill="#898989" points="556.199 1504.159 568.17 1535.104 556.063 1552.107 531.949 1538.184 519.978 1507.278 532.085 1490.236"></polygon>
                  </g>
                </g>
              </g>
              <g>
                <g opacity=".1">
                  <polygon points="690.284 2008.226 597.714 2064.085 315.219 1900.975 407.788 1845.116"></polygon>
                </g>
                <g>
                  <g>
                    <path fill="#d1d1d1" d="M627.342,1575.781l-47.841,27.805c10.196,61.595,23.066,425.933,23.743,434.93
										l47.842-27.804C650.409,2001.716,637.539,1637.376,627.342,1575.781z"></path>
                    <path fill="#f0f0f0" d="M526.914,1415.723c-27.342-15.787-50.379-14.116-67.634-4.088l-47.841,27.804
										c17.254-10.028,40.291-11.699,67.633,4.088c55.622,32.116,93.113,115.726,100.43,160.059l47.841-27.805
										C620.027,1531.449,582.536,1447.838,526.914,1415.723z"></path>
                    <g>
                      <path fill="#595959" d="M479.072,1443.527c55.622,32.116,93.113,115.726,100.429,160.059
											c10.196,61.596,23.066,425.934,23.744,434.931l-250.179-144.45c0.726-8.186,14.522-357.129,25.033-406.768
											C385.643,1451.546,423.45,1411.412,479.072,1443.527z"></path>
                    </g>
                  </g>
                </g>
              </g>
            </g>
            <g>
              <path fill="#fff" d="M1114.292,776.873l242.978,140.293l-590.751,343.329L523.54,1120.203L1114.292,776.873
							L1114.292,776.873z M1114.285,771.96l-599.226,348.254l251.467,145.194l599.226-348.255L1114.285,771.96L1114.285,771.96z"></path>
            </g>
            <g>
              <path fill="#fff" d="M1363.584,923.33l121.902,314.797l-591.783,343.93L771.801,1267.26L1363.584,923.33
							L1363.584,923.33z M1365.751,917.154l-599.226,348.255l125.01,322.824l599.226-348.255L1365.751,917.154L1365.751,917.154z"></path>
            </g>
          </g>
          <g>
            <polygon fill="#d9d9d9" points="1975.22 1425.304 1311.399 1810.572 1356.253 1838.935 2020.072 1453.666"></polygon>
            <g>
              <g>
                <g>
                  <g>
                    <g>
                      <polygon fill="#ff9b5a" points="1352.102 1813.066 1333.315 1802.147 1330.026 641.785 1348.813 652.703"></polygon>
                    </g>
                    <g>
                      <polygon fill="#ffc489" points="1348.813 652.703 1330.026 641.785 1963.498 276.026 1982.285 286.945"></polygon>
                    </g>
                    <g>
                      <polygon fill="#ffae66" points="1982.285 286.945 1985.574 1447.307 1352.102 1813.066 1348.813 652.703"></polygon>
                    </g>
                  </g>
                </g>
                <g>
                  <g>
                    <polygon fill="#fff" points="1569.583 771.973 1570.108 956.961 1409.147 1049.898 1408.623 864.91"></polygon>
                  </g>
                  <g>
                    <ellipse cx="1471.967" cy="719.776" fill="#fff" rx="89.729" ry="51.972" transform="rotate(-59.84 1472.032 719.797)"></ellipse>
                  </g>
                  <g>
                    <path fill="#fff" d="M1589.613,760.408l160.961-92.937l0.524,184.988l-160.96,92.937L1589.613,760.408z
										 M1736.451,817.164l-46.405-26.447l46.104-79.84c4.459-7.744,4.436-16.089-0.053-18.647
										c-2.244-1.289-5.186-0.883-8.124,0.814c-2.938,1.697-5.873,4.683-8.102,8.555l-46.104,79.86l-46.405-26.446
										c-2.244-1.289-5.186-0.883-8.124,0.814c-2.938,1.697-5.873,4.683-8.102,8.555c-4.459,7.724-4.436,16.069,0.053,18.647
										l46.405,26.427l-46.104,79.86c-4.459,7.744-4.436,16.089,0.053,18.647c2.244,1.279,5.19,0.866,8.133-0.833
										c2.925-1.689,5.864-4.674,8.094-8.536l46.104-79.86l46.405,26.446c2.244,1.279,5.19,0.865,8.116-0.824
										c2.943-1.699,5.881-4.683,8.111-8.546C1740.963,828.087,1740.94,819.742,1736.451,817.164L1736.451,817.164z"></path>
                  </g>
                  <g>
                    <path fill="#fff" d="M1804.325,555.487c9.911-5.723,18.043-1.069,18.075,10.301
										c0.032,11.39-8.046,25.383-17.958,31.106L1586.18,722.916c-9.912,5.723-18.043,1.089-18.075-10.301
										c-0.032-11.37,8.046-25.383,17.958-31.106L1804.325,555.487z"></path>
                  </g>
                  <g>
                    <polygon fill="#fff" points="1931.547 562.98 1932.071 747.968 1771.111 840.905 1770.586 655.917"></polygon>
                  </g>
                  <g>
                    <path fill="#fff" d="M1908.106,398.869c12.613-7.283,22.971-1.38,23.013,13.135l0.086,30.215
										c0.041,14.495-10.25,32.32-22.863,39.603l-317.396,183.26c-12.613,7.283-22.971,1.379-23.012-13.115l-0.086-30.215
										c-0.041-14.514,10.25-32.34,22.863-39.623L1908.106,398.869z"></path>
                  </g>
                  <g>
                    <path fill="red" d="M1545.28,1024.165c2.938-1.696,5.88-2.103,8.125-0.814
										c4.488,2.558,4.512,10.903,0.053,18.647l-46.104,79.84l46.405,26.446c4.489,2.578,4.512,10.923,0.053,18.647
										c-2.247,3.872-5.169,6.847-8.111,8.546c-2.925,1.689-5.871,2.103-8.116,0.824l-46.405-26.447l-46.104,79.86
										c-2.23,3.862-5.168,6.847-8.094,8.536c-2.943,1.699-5.889,2.113-8.133,0.834c-4.488-2.558-4.512-10.903-0.053-18.647
										l46.104-79.86l-46.405-26.427c-4.489-2.578-4.512-10.923-0.053-18.647c2.23-3.872,5.164-6.859,8.102-8.555
										c2.938-1.697,5.88-2.103,8.124-0.814l46.405,26.446l46.104-79.86C1539.408,1028.848,1542.342,1025.861,1545.28,1024.165z"></path>
                  </g>
                  <g>
                    <polygon fill="#fff" points="1570.832 1212.424 1571.356 1397.392 1410.396 1490.329 1409.871 1305.361"></polygon>
                  </g>
                  <g>
                    <path fill="#fff" d="M1409.247,1085.136l160.961-92.937l0.524,184.968l-160.961,92.937L1409.247,1085.136z
										 M1553.759,1148.284l-46.405-26.446l46.104-79.84c4.459-7.744,4.436-16.089-0.053-18.647
										c-2.245-1.289-5.186-0.883-8.125,0.814c-2.938,1.697-5.873,4.683-8.102,8.555l-46.104,79.86l-46.405-26.447
										c-2.244-1.289-5.186-0.883-8.124,0.814c-2.938,1.696-5.873,4.683-8.102,8.555c-4.459,7.725-4.436,16.069,0.053,18.647
										l46.405,26.427l-46.104,79.86c-4.459,7.744-4.436,16.089,0.053,18.647c2.244,1.279,5.19,0.865,8.133-0.834
										c2.925-1.689,5.864-4.673,8.094-8.536l46.104-79.86l46.405,26.447c2.244,1.279,5.19,0.865,8.116-0.824
										c2.943-1.699,5.864-4.673,8.111-8.546C1558.271,1159.207,1558.247,1150.862,1553.759,1148.284L1553.759,1148.284z"></path>
                  </g>
                  <g>
                    <g>
                      <polygon fill="#fff" points="1752.446 1328.128 1752.971 1513.096 1592.01 1606.033 1591.486 1421.065"></polygon>
                    </g>
                    <g>
                      <polygon fill="#fff" points="1751.822 1107.923 1752.347 1292.891 1591.386 1385.827 1590.862 1200.859"></polygon>
                    </g>
                  </g>
                  <g>
                    <polygon fill="#fff" points="1751.198 887.697 1751.722 1072.665 1590.762 1165.602 1590.237 980.634"></polygon>
                  </g>
                  <g>
                    <polygon fill="#fff" points="1932.171 783.205 1932.695 968.174 1771.735 1061.11 1771.21 876.142"></polygon>
                  </g>
                  <g>
                    <path fill="#fff" d="M1771.835,1096.368l160.961-92.937l0.524,184.968l-160.961,92.937L1771.835,1096.368z
										 M1915.209,1159.461l-46.405-26.446l46.104-79.86c4.459-7.725,4.436-16.089-0.053-18.647
										c-2.244-1.279-5.186-0.868-8.125,0.829c-2.938,1.696-5.873,4.678-8.102,8.54l-46.104,79.86l-46.405-26.446
										c-2.244-1.279-5.182-0.871-8.118,0.825c-2.936,1.695-5.871,4.677-8.109,8.544c-4.46,7.725-4.436,16.089,0.053,18.647
										l46.405,26.447l-46.103,79.859c-4.46,7.725-4.436,16.07,0.053,18.627c2.261,1.289,5.19,0.885,8.133-0.814
										c2.925-1.689,5.864-4.673,8.094-8.555l46.104-79.86l46.405,26.447c2.244,1.299,5.19,0.885,8.133-0.814
										c2.925-1.689,5.865-4.673,8.094-8.555C1919.721,1170.363,1919.698,1162.019,1915.209,1159.461L1915.209,1159.461z"></path>
                  </g>
                  <g>
                    <polygon fill="#fff" points="1571.456 1432.63 1571.981 1617.598 1411.02 1710.535 1410.495 1525.567"></polygon>
                  </g>
                  <g>
                    <path fill="#fff" d="M1906.73,1035.336c2.939-1.697,5.88-2.108,8.125-0.829
										c4.489,2.558,4.512,10.922,0.053,18.647l-46.104,79.86l46.405,26.446c4.489,2.558,4.512,10.903,0.053,18.627
										c-2.229,3.882-5.168,6.866-8.094,8.555c-2.942,1.699-5.889,2.113-8.133,0.814l-46.405-26.447l-46.104,79.86
										c-2.23,3.882-5.168,6.866-8.094,8.555c-2.942,1.699-5.871,2.103-8.133,0.814c-4.489-2.558-4.512-10.903-0.053-18.627
										l46.103-79.86l-46.405-26.447c-4.489-2.558-4.512-10.922-0.053-18.647c2.238-3.867,5.173-6.849,8.109-8.544
										c2.936-1.695,5.874-2.104,8.118-0.825l46.405,26.446l46.104-79.86C1900.858,1040.014,1903.792,1037.032,1906.73,1035.336z"></path>
                  </g>
                  <g>
                    <polygon fill="#fff" points="1933.42 1223.637 1933.944 1408.604 1772.983 1501.541 1772.459 1316.573"></polygon>
                  </g>
                  <g>
                    <path fill="red" d="M1727.972,693.044c2.938-1.696,5.88-2.103,8.124-0.814
										c4.488,2.558,4.512,10.903,0.053,18.647l-46.104,79.84l46.405,26.447c4.489,2.578,4.512,10.923,0.053,18.647
										c-2.23,3.862-5.168,6.847-8.111,8.546c-2.925,1.689-5.871,2.103-8.116,0.824l-46.405-26.446l-46.104,79.86
										c-2.23,3.862-5.168,6.847-8.094,8.536c-2.943,1.699-5.889,2.113-8.133,0.833c-4.488-2.558-4.512-10.903-0.053-18.647
										l46.104-79.86l-46.405-26.427c-4.489-2.578-4.512-10.923-0.053-18.647c2.23-3.872,5.164-6.859,8.102-8.555
										c2.938-1.697,5.88-2.103,8.124-0.814l46.405,26.446l46.104-79.86C1722.1,697.727,1725.034,694.741,1727.972,693.044z"></path>
                  </g>
                </g>
              </g>
            </g>
          </g>
          <g>
            <polygon fill="#d9d9d9" points="1739.769 1655.754 870.048 2160.523 928.814 2197.683 1798.533 1692.914"></polygon>
            <g>
              <g>
                <g>
                  <g>
                    <g>
                      <polygon fill="#007dd1" points="923.375 2163.791 898.761 2149.486 894.451 629.208 919.065 643.513"></polygon>
                    </g>
                    <g>
                      <polygon fill="#3db1ff" points="919.065 643.513 894.451 629.208 1724.41 150 1749.025 164.305"></polygon>
                    </g>
                    <g>
                      <polygon fill="#09f" points="1749.025 164.305 1753.334 1684.583 923.375 2163.791 919.065 643.513"></polygon>
                    </g>
                  </g>
                </g>
                <g>
                  <g>
                    <polygon fill="#fff" points="1208.314 799.777 1209.001 1042.144 998.114 1163.907 997.427 921.541"></polygon>
                  </g>
                  <g>
                    <ellipse cx="1080.419" cy="731.39" fill="#fff" rx="117.561" ry="68.092" transform="rotate(-59.84 1080.469 731.414)"></ellipse>
                  </g>
                  <g>
                    <path fill="#fff" d="M1234.556,784.626l210.887-121.763l0.687,242.366l-210.886,121.763L1234.556,784.626z
										 M1426.939,858.985l-60.799-34.649l60.404-104.604c5.843-10.146,5.811-21.079-0.069-24.431
										c-2.94-1.689-6.795-1.156-10.644,1.066c-3.85,2.223-7.694,6.136-10.616,11.209l-60.404,104.63l-60.798-34.649
										c-2.941-1.689-6.795-1.156-10.644,1.066c-3.85,2.223-7.694,6.136-10.616,11.209c-5.842,10.12-5.812,21.054,0.069,24.431
										l60.798,34.624l-60.404,104.63c-5.842,10.146-5.811,21.079,0.069,24.431c2.941,1.676,6.801,1.134,10.656-1.092
										c3.833-2.213,7.683-6.123,10.604-11.183l60.404-104.63l60.799,34.649c2.94,1.676,6.8,1.134,10.633-1.079
										c3.855-2.226,7.706-6.136,10.627-11.196C1432.851,873.295,1432.82,862.362,1426.939,858.985L1426.939,858.985z"></path>
                  </g>
                  <g>
                    <path fill="#fff" d="M1515.866,516.143c12.986-7.498,23.639-1.401,23.682,13.496
										c0.042,14.923-10.542,33.256-23.528,40.754l-285.962,165.111c-12.986,7.498-23.639,1.427-23.681-13.496
										c-0.042-14.897,10.542-33.257,23.528-40.754L1515.866,516.143z"></path>
                  </g>
                  <g>
                    <polygon fill="#fff" points="1682.549 525.96 1683.236 768.326 1472.349 890.089 1471.663 647.723"></polygon>
                  </g>
                  <g>
                    <path fill="#fff" d="M1651.838,310.946c16.526-9.542,30.097-1.807,30.151,17.209l0.112,39.587
										c0.054,18.991-13.429,42.345-29.955,51.887l-415.843,240.103c-16.526,9.542-30.097,1.808-30.151-17.183l-0.112-39.587
										c-0.054-19.016,13.429-42.371,29.955-51.913L1651.838,310.946z"></path>
                  </g>
                  <g>
                    <path fill="#ff4f4f" d="M1176.473,1130.193c3.849-2.223,7.704-2.755,10.644-1.066
										c5.881,3.352,5.912,14.285,0.069,24.431l-60.404,104.605l60.798,34.649c5.881,3.378,5.912,14.311,0.069,24.431
										c-2.944,5.073-6.772,8.97-10.627,11.196c-3.833,2.213-7.693,2.755-10.633,1.079l-60.799-34.649l-60.404,104.63
										c-2.921,5.06-6.772,8.97-10.604,11.183c-3.855,2.226-7.715,2.768-10.656,1.092c-5.881-3.351-5.912-14.285-0.069-24.431
										l60.404-104.63l-60.799-34.624c-5.881-3.377-5.912-14.31-0.069-24.431c2.921-5.073,6.766-8.986,10.616-11.209
										s7.704-2.755,10.644-1.066l60.799,34.649l60.404-104.63C1168.778,1136.328,1172.623,1132.415,1176.473,1130.193z"></path>
                  </g>
                  <g>
                    <polygon fill="#fff" points="1209.95 1376.845 1210.637 1619.185 999.75 1740.949 999.063 1498.609"></polygon>
                  </g>
                  <g>
                    <path fill="#fff" d="M998.245,1210.075l210.887-121.763l0.687,242.34l-210.887,121.763L998.245,1210.075z
										 M1187.581,1292.811l-60.799-34.649l60.404-104.605c5.842-10.146,5.811-21.079-0.069-24.431
										c-2.941-1.689-6.795-1.156-10.645,1.066c-3.849,2.223-7.694,6.136-10.615,11.209l-60.404,104.63l-60.798-34.65
										c-2.94-1.689-6.795-1.156-10.644,1.066c-3.85,2.223-7.694,6.136-10.616,11.209c-5.842,10.12-5.811,21.053,0.069,24.431
										l60.798,34.624l-60.404,104.63c-5.842,10.146-5.812,21.079,0.069,24.431c2.941,1.676,6.801,1.134,10.656-1.092
										c3.833-2.213,7.683-6.123,10.604-11.183l60.404-104.63l60.799,34.649c2.94,1.676,6.8,1.134,10.633-1.079
										c3.855-2.226,7.683-6.123,10.627-11.196C1193.493,1307.121,1193.462,1296.188,1187.581,1292.811L1187.581,1292.811z"></path>
                  </g>
                  <g>
                    <g>
                      <polygon fill="#fff" points="1447.896 1528.438 1448.583 1770.778 1237.697 1892.542 1237.01 1650.201"></polygon>
                    </g>
                    <g>
                      <polygon fill="#fff" points="1447.078 1239.93 1447.765 1482.27 1236.879 1604.034 1236.192 1361.693"></polygon>
                    </g>
                  </g>
                  <g>
                    <polygon fill="#fff" points="1446.26 951.396 1446.947 1193.736 1236.061 1315.5 1235.374 1073.159"></polygon>
                  </g>
                  <g>
                    <polygon fill="#fff" points="1683.367 814.494 1684.054 1056.834 1473.167 1178.597 1472.48 936.257"></polygon>
                  </g>
                  <g>
                    <path fill="#fff" d="M1473.298,1224.791l210.887-121.763l0.687,242.34l-210.887,121.763L1473.298,1224.791z
										 M1661.144,1307.453l-60.799-34.649l60.404-104.63c5.843-10.121,5.812-21.079-0.069-24.431
										c-2.94-1.676-6.795-1.137-10.645,1.086c-3.849,2.223-7.694,6.13-10.615,11.189l-60.404,104.63l-60.798-34.65
										c-2.941-1.676-6.789-1.14-10.636,1.081c-3.847,2.221-7.692,6.128-10.624,11.194c-5.843,10.121-5.812,21.08,0.069,24.431
										l60.798,34.65l-60.403,104.63c-5.843,10.121-5.812,21.054,0.069,24.405c2.963,1.689,6.8,1.16,10.656-1.066
										c3.833-2.213,7.683-6.123,10.604-11.209l60.404-104.63l60.799,34.65c2.94,1.702,6.8,1.16,10.656-1.066
										c3.833-2.213,7.683-6.123,10.604-11.209C1667.056,1321.738,1667.024,1310.805,1661.144,1307.453L1661.144,1307.453z"></path>
                  </g>
                  <g>
                    <polygon fill="#fff" points="1210.767 1665.353 1211.454 1907.693 1000.568 2029.457 999.881 1787.116"></polygon>
                  </g>
                  <g>
                    <path fill="#ff4f4f" d="M1650.035,1144.829c3.85-2.223,7.704-2.761,10.645-1.086
										c5.881,3.351,5.912,14.31,0.069,24.431l-60.404,104.63l60.799,34.649c5.881,3.351,5.912,14.285,0.069,24.405
										c-2.921,5.086-6.772,8.996-10.604,11.209c-3.855,2.226-7.715,2.768-10.656,1.066l-60.799-34.65l-60.404,104.63
										c-2.922,5.086-6.772,8.996-10.604,11.209c-3.855,2.226-7.693,2.755-10.656,1.066c-5.881-3.352-5.912-14.284-0.069-24.405
										l60.403-104.63l-60.798-34.65c-5.881-3.351-5.912-14.31-0.069-24.431c2.932-5.067,6.777-8.973,10.624-11.194
										c3.847-2.221,7.695-2.756,10.636-1.081l60.799,34.65l60.404-104.63C1642.341,1150.958,1646.186,1147.051,1650.035,1144.829
										z"></path>
                  </g>
                  <g>
                    <polygon fill="#fff" points="1685.003 1391.535 1685.69 1633.876 1474.803 1755.639 1474.116 1513.299"></polygon>
                  </g>
                  <g>
                    <path fill="#ff4f4f" d="M1415.831,696.366c3.849-2.223,7.704-2.755,10.644-1.066
										c5.881,3.351,5.912,14.285,0.069,24.431l-60.404,104.604l60.799,34.65c5.881,3.377,5.912,14.31,0.069,24.431
										c-2.921,5.06-6.772,8.97-10.627,11.196c-3.833,2.213-7.693,2.755-10.633,1.079l-60.799-34.649l-60.404,104.63
										c-2.921,5.06-6.772,8.97-10.604,11.183c-3.855,2.226-7.715,2.768-10.656,1.092c-5.881-3.352-5.912-14.285-0.069-24.431
										l60.404-104.63l-60.799-34.624c-5.881-3.377-5.912-14.31-0.069-24.431c2.922-5.073,6.766-8.986,10.616-11.209
										c3.849-2.223,7.704-2.755,10.644-1.066l60.799,34.649l60.404-104.63C1408.137,702.502,1411.981,698.589,1415.831,696.366z"></path>
                  </g>
                </g>
              </g>
            </g>
          </g>
          <g>
            <g>
              <path d="M2698.793,2437.965l-24.426-14.196l-43.401,24.983l43.269-25.059l1.227-0.556
							c5.775-3.334,5.805-8.738,0.084-12.063l-2.391-1.389c-5.737-3.334-15.049-3.325-20.824,0.01
							c5.775-3.334,5.805-8.738,0.068-12.073c-5.142-2.988-13.196-3.29-18.967-0.901c4.144-3.335,3.649-8.002-1.492-10.99
							c-5.737-3.334-15.048-3.325-20.823,0.009l2.588-1.494l-559.949-325.365c-42.781,10.573-82.066,24.406-117.133,40.877
							l583.043,338.785l2.572-1.485c-5.757,3.325-5.804,8.719-0.067,12.053c5.141,2.988,13.196,3.29,18.955,0.907
							c-4.132,3.328-3.637,7.995,1.504,10.983c5.737,3.334,15.066,3.334,20.824,0.01c-5.758,3.325-5.805,8.719-0.068,12.053
							l2.391,1.389c5.721,3.325,15.049,3.325,20.807,0l1.112-0.642l28.67,16.662c6.512,3.784,15.409,5.293,23.933,4.66
							C2663.49,2477.449,2683.164,2458.27,2698.793,2437.965z" opacity=".1"></path>
              <ellipse cx="2114.569" cy="2309.448" opacity=".1" rx="220.805" ry="142.394" transform="rotate(-4.704 2114.498 2309.382)"></ellipse>
            </g>
            <g>
              <g>
                <path fill="#004d2e" d="M2191.773,1341.74c-4.453,10.849-26.243,26.892-34.296,17.231
								c-12.641-15.166-35.071-60.59-35.071-60.59c-3.389-8.609,17.349-34.248,35.155-25.486
								C2157.562,1272.895,2197.842,1326.956,2191.773,1341.74z"></path>
                <path fill="#f7cdb3" d="M2154.216,1274.672c11.639,14.24-12.2,33.133-24.793,27.371
								c-10.02-9.399-5.28-27.373,3.187-30.055C2149.541,1266.626,2154.216,1274.672,2154.216,1274.672z"></path>
                <path fill="#007d3e" d="M2191.773,1341.74c-4.453,10.849-26.243,26.892-34.296,17.231
								c-12.641-15.166-35.071-60.59-35.071-60.59c13.158,10.95,35.925-12.291,35.155-25.486
								C2157.562,1272.895,2197.842,1326.956,2191.773,1341.74z"></path>
              </g>
              <g>
                <g>
                  <path fill="#f0f0f0" d="M2214.681,1464.391c7.233,26.471,12.452,100.135,20.185,123.499
									c4.46,13.474,67.499-15.505,61.878-34.952c0,0-6.893-101.932-20.369-133.445
									C2270.783,1406.417,2209.624,1445.883,2214.681,1464.391z"></path>
                </g>
              </g>
              <g>
                <g>
                  <g>
                    <g>
                      <path fill="#fac285" d="M1715.236,1135.171l56.194-88.887l-113.174-18.019c-1.573,0.466-2.284,1.508-2.275,3.034
											L1715.236,1135.171z"></path>
                      <path fill="#bf3009" d="M1681.456,1031.958l-23.2-3.694c-1.573,0.466-2.284,1.508-2.275,3.034l11.302,19.813
											C1665.65,1041.896,1673.982,1033.046,1681.456,1031.958z"></path>
                      <g>
                        <path fill="#d6c6b1" d="M1715.236,1135.171l-59.255-103.873c-0.005-0.776,0.182-1.424,0.569-1.938l49.71,71.37
												L1715.236,1135.171z"></path>
                      </g>
                      <g>
                        <g>
                          <g>
                            <polygon fill="#952f19" points="2539.528 1675.547 1706.423 1100.632 1714.624 1135.277 2547.73 1710.192"></polygon>
                          </g>
                          <g>
                            <polygon fill="#e04728" points="2568.202 1630.982 1735.097 1056.067 1706.423 1100.632 2539.528 1675.547"></polygon>
                          </g>
                          <g>
                            <polygon fill="#ff5938" points="2605.066 1621.053 1771.961 1046.138 1735.097 1056.067 2568.202 1630.982"></polygon>
                          </g>
                          <g>
                            <polygon fill="#fac285" points="2605.066 1621.053 2568.202 1630.982 2539.528 1675.547 2547.73 1710.192 2584.602 1700.257 2613.268 1655.698"></polygon>
                          </g>
                        </g>
                      </g>
                    </g>
                  </g>
                  <path fill="#ccc" d="M2586.011,1626.696c-21.903,10.753-40.913,38.966-42.462,63.014
									c-0.555,8.617,1.23,15.505,4.728,20.334l-0.547,0.147l-14.906-10.272c-1.25-4.133-1.81-8.94-1.456-14.429
									c0.395-6.135,1.834-12.518,4.113-18.847c-2.279,6.329-3.718,12.713-4.113,18.847c-0.354,5.489,0.206,10.296,1.456,14.429
									l-0.756-0.521c-3.962-4.855-4.676-27.979-3.831-31.411c4.084-16.591,15.084-33.707,28.636-44.871
									c3.905-3.217,28.923-13.13,35.155-11.049l13.038,8.985l0.421,1.777C2599.884,1621.977,2593.252,1623.142,2586.011,1626.696z
									"></path>
                  <g>
                    <path fill="#ebab00" d="M2538.614,1704.835c3.683,2.917,1.29,6.589,5.466,9.448
										c-6.335-5.019-9.804-14.071-9.02-26.249c1.685-26.174,22.376-56.879,46.214-68.582c11.484-5.638,21.603-5.837,28.819-1.604
										c-4.176-2.859-6.733,0.701-10.785-1.677c-6.635-3.892-15.938-3.709-26.497,1.474c-21.917,10.76-40.941,38.991-42.49,63.056
										C2529.6,1691.898,2532.789,1700.22,2538.614,1704.835z"></path>
                    <g>
                      <path fill="#fb0" d="M2619.705,1630.484c-0.767-0.75-1.578-1.44-2.453-2.04
											c-6.681-4.573-16.417-4.67-27.549,0.795c-21.903,10.753-40.914,38.965-42.462,63.014
											c-0.761,11.827,2.842,20.444,9.307,24.869c0.901,0.617,1.867,1.137,2.876,1.588c-5.508,0.303-10.35-0.95-14.235-3.609
											c-0.379-0.26-0.749-0.532-1.11-0.818c-6.335-5.019-9.803-14.07-9.019-26.249c1.685-26.174,22.376-56.879,46.214-68.582
											c11.484-5.638,21.604-5.838,28.819-1.604c0.397,0.233,0.785,0.479,1.164,0.738
											C2615.113,1621.226,2617.989,1625.28,2619.705,1630.484z"></path>
                      <path fill="#fff" d="M2575.171,1714.235c23.838-11.703,44.529-42.408,46.215-68.582
											c0.375-5.817-0.266-10.877-1.681-15.169c4.896,4.792,7.511,12.604,6.853,22.829c-1.549,24.049-20.56,52.261-42.462,63.014
											c-9.63,4.728-18.206,5.277-24.672,2.383C2564.225,1718.446,2569.53,1717.005,2575.171,1714.235z"></path>
                    </g>
                    <path fill="#fb0" d="M2556.547,1717.122c4.338,2.97,1.656,6.888,5.994,9.858
										c-7.036-4.817-10.958-14.195-10.129-27.067c1.685-26.174,22.376-56.879,46.215-68.582
										c12.115-5.948,22.712-5.843,29.983-0.865c-4.338-2.97-7.021,0.948-11.359-2.022c-6.681-4.573-16.417-4.67-27.549,0.795
										c-21.903,10.753-40.914,38.965-42.462,63.014C2546.479,1704.079,2550.083,1712.697,2556.547,1717.122z"></path>
                    <g>
                      <path fill="#ebab00" d="M2637.059,1642.366c-0.768-0.753-1.581-1.445-2.459-2.046
											c-6.681-4.573-16.417-4.67-27.549,0.795c-21.903,10.753-40.914,38.965-42.462,63.014
											c-0.762,11.827,2.842,20.444,9.307,24.869c0.904,0.619,1.873,1.139,2.884,1.591c-5.51,0.303-10.352-0.949-14.238-3.609
											c-7.036-4.817-10.958-14.195-10.129-27.067c1.685-26.174,22.376-56.879,46.215-68.582
											c12.115-5.948,22.712-5.843,29.983-0.866C2632.467,1633.106,2635.343,1637.16,2637.059,1642.366z"></path>
                      <path fill="#fff" d="M2592.525,1726.114c23.838-11.703,44.529-42.409,46.214-68.582
											c0.375-5.816-0.266-10.875-1.68-15.166c4.892,4.792,7.506,12.602,6.847,22.823c-1.548,24.048-20.559,52.261-42.462,63.014
											c-9.625,4.726-18.198,5.276-24.664,2.386C2581.58,1730.325,2586.884,1728.883,2592.525,1726.114z"></path>
                    </g>
                    <g>
                      <path fill="#fb0" d="M2645.953,1642.338c4.175,2.858,1.866,6.592,5.555,9.514
											c-6.685-4.576-16.428-4.673-27.567,0.796c-21.917,10.76-40.941,38.991-42.49,63.055
											c-0.762,11.835,2.844,20.457,9.313,24.885c0.348,0.239,0.705,0.465,1.07,0.679c0.772,0.453,1.588,0.839,2.431,1.18
											c-4.26,0.254-8.098-0.455-11.432-1.991c-0.568-0.181-1.153-0.434-1.784-0.866c-0.397-0.233-0.785-0.479-1.164-0.739
											c-3.857-2.64-6.733-6.695-8.449-11.901c-4.892-4.792-7.505-12.602-6.847-22.823c1.548-24.049,20.559-52.261,42.462-63.014
											c9.626-4.725,18.199-5.276,24.664-2.386C2637.225,1638.426,2642.067,1639.678,2645.953,1642.338z"></path>
                    </g>
                    <path fill="#fb0" d="M2573.889,1728.994c4.333,2.967,1.651,6.885,5.99,9.854
										c-7.036-4.816-10.958-14.195-10.129-27.067c1.685-26.174,22.376-56.879,46.214-68.582
										c12.115-5.948,22.712-5.843,29.983-0.865c-4.338-2.97-7.02,0.948-11.354-2.018c-6.681-4.574-16.417-4.67-27.549,0.795
										c-21.903,10.753-40.914,38.965-42.462,63.014C2563.821,1715.951,2567.425,1724.568,2573.889,1728.994z"></path>
                    <g>
                      <path fill="#ffde66" d="M2618.331,1739.793c21.917-10.76,40.941-38.991,42.49-63.055
											c1.55-24.065-14.962-34.85-36.879-24.09s-40.941,38.991-42.49,63.056
											C2579.902,1739.768,2596.413,1750.553,2618.331,1739.793z M2618.51,1737.012c-20.519,10.074-35.977-0.024-34.526-22.552
											c1.451-22.529,19.26-48.958,39.779-59.032c20.519-10.073,35.977,0.024,34.526,22.553
											C2656.838,1700.51,2639.028,1726.939,2618.51,1737.012L2618.51,1737.012z"></path>
                    </g>
                    <g>
                      <g>
                        <ellipse cx="2675.089" cy="1733.232" fill="#83499c" rx="29.031" ry="16.815" transform="rotate(-55.612 2675.09 1733.31)"></ellipse>
                      </g>
                      <path fill="#9654b0" d="M2692.167,1684.194c0.568,0.478,1.256,1.192,1.793,1.703
											c0.841,0.802,1.844,1.996,2.526,2.937c1.893,2.611,2.169,3.152,3.494,5.752c0.686,1.347,1.4,3.246,1.829,4.695
											c0.228,0.769,0.526,1.797,0.698,2.58c0.239,1.09,0.507,2.554,0.667,3.659c0.248,1.719,0.374,4.04,0.373,5.776
											c-0.003,2.927-0.248,4.982-0.477,6.679c-0.339,2.515-0.656,3.812-1.287,6.396c-0.006,0.026-0.645,2.618-1.958,6.101
											c-1.2,3.182-2.527,5.803-2.539,5.828c-1.298,2.511-2.081,4.026-3.063,5.556c-0.514,0.802-1.183,1.882-1.715,2.672
											c-0.533,0.791-1.284,1.817-1.834,2.596c-0.55,0.778-1.353,1.764-1.946,2.51c-1.835,2.308-5.367,6.198-9.173,9.311
											c-1.405,1.15-2.988,2.41-5.513,4.058c-1.563,1.02-3.761,2.199-5.411,3.073c-1.091,0.521-2.558,1.193-3.688,1.624
											c-1.267,0.484-2.973,1.104-4.291,1.426c-1.609,0.392-3.769,0.869-5.41,1.091c-1.432,0.195-3.365,0.343-4.81,0.298
											c-0.778-0.023-1.816-0.046-2.592-0.111c-0.834-0.071-1.943-0.208-2.769-0.341c-1.483-0.24-3.426-0.758-4.862-1.199
											c-1.103-0.338-2.535-0.916-3.569-1.428c-1.337-0.662-3.05-1.682-4.313-2.475c-6.056-4.146-9.432-12.219-8.718-23.297
											c1.45-22.529,19.26-48.958,39.779-59.032c10.428-5.12,19.549-5.029,25.807-0.745
											C2690.114,1682.543,2691.304,1683.468,2692.167,1684.194z M2676.604,1709.706c-11.833,5.81-22.105,21.052-22.941,34.045
											c-0.837,12.993,8.078,18.816,19.912,13.007c11.834-5.81,22.105-21.052,22.941-34.045
											C2697.352,1709.72,2688.437,1703.896,2676.604,1709.706z"></path>
                      <path fill="#b364d1" d="M2592.702,1737.757l39.626,27.204c-6.056-4.145-9.432-12.218-8.718-23.297
											c1.45-22.529,19.26-48.958,39.779-59.032c10.428-5.12,19.549-5.029,25.808-0.745l-39.626-27.204
											c-6.259-4.284-15.379-4.375-25.808,0.745c-20.519,10.073-38.328,36.503-39.779,59.032
											C2583.27,1725.539,2586.646,1733.612,2592.702,1737.757z"></path>
                    </g>
                  </g>
                </g>
              </g>
              <g>
                <g>
                  <g>
                    <g>
                      <g>
                        <path fill="#594432" d="M2228.091,2292.535c-0.697,1.375-1.105,5.897-1.474,8.035
												c17.015,13.711,38.156,24.216,54.696,19.614c14.338-3.99,16.488-16.103,13.894-27.795L2228.091,2292.535z"></path>
                        <path fill="#594432" d="M2282.22,2317.35c-20.778,5.782-53.7-21.297-69.425-35.511
												c-15.212-13.75-29.927-19.237-38.308-30.058c-7.027-9.072-7.893-19.725-5.354-31.223
												c6.696-30.333,36.873-4.288,75.052,23.377c24.521,17.768,40.654,19.303,48.301,33.955
												C2298.84,2290.066,2301.068,2312.105,2282.22,2317.35z"></path>
                        <path fill="#211913" d="M2282.33,2310.486c-20.778,5.782-50.652-18.367-67.108-32.273
												c-15.662-13.235-31.45-21.492-39.831-32.313c-7.027-9.072-8.448-17.531-5.91-29.03
												c6.696-30.333,38.096-5.711,76.275,21.953c24.522,17.768,40.654,19.303,48.301,33.955
												C2300.412,2284.955,2301.178,2305.241,2282.33,2310.486z"></path>
                      </g>
                      <path fill="#615636" d="M2224.976,2259.48c7.946,42.747,66.737,52.674,73.615,21.034
											c0.874-4.019-9.406-391.743-9.406-391.743l-93.98,16.291C2195.205,1905.062,2222.288,2245.016,2224.976,2259.48z"></path>
                      <g>
                        <path fill="#f7cdb3" d="M2225.249,1507.631c4.5,35.519-53.103,67.831-67.93,45.317l-5.989-92.266l68.832-6.712
												L2225.249,1507.631z"></path>
                        <path fill="#f7cdb3" d="M2231.213,1418.692c0.164,20.77-8.662,47.463-19.903,59.803
												c-18.198,19.979-73.112,36.8-88.067,22.409c-17.531-16.869-16.474-61.065-15.782-91.811
												c1.045-46.443,25.128-84.418,76.489-78.888C2218.127,1333.885,2230.846,1372.238,2231.213,1418.692z"></path>
                        <path fill="#634029" d="M2248.015,1355.641c2.804,3.029,5.326,6.958,5.288,11.228
												c0.979-7.757-4.074-15.357-9.337-19.783c-2.008-9.025-10.189-21.95-22.145-24.239c6.156,1.944,10.364,7.999,12.93,13.344
												c-3.953-3.464-8.42-6.161-13.304-7.955c-27.256-10.014-59.262-6.466-83.44,4.683c-2.556,0.274-5.184,0.987-7.831,1.989
												c-1.105,0.291-2.204,0.587-3.286,0.883l-15.445,4.036c2.898,0.197,5.64,0.215,8.249,0.113
												c-1.191,0.657-2.37,1.323-3.528,1.981l-13.965,7.734c3.747-0.691,7.139-1.621,10.292-2.662
												c-2.996,2.259-5.907,4.812-8.683,7.279l-12.054,10.466c6.18-2.552,11.198-5.577,15.569-8.599
												c-3.99,3.559-7.187,9.04-10.076,14.136l-6.448,11.072c4.573-3.131,7.936-6.472,10.651-9.764
												c-0.427,2.495-5.787,14.312,0.833,26.076l9.392,8.83c-2.195-5.36-2.081-11.37,0.332-15.268
												c1.621,6.969,13.065,10.878,13.81,12.214c1.964,3.526,7.894,26.495,11.071,32.744c3.307,1.047,4.177,1.135,7.606,1.564
												c1.309,0.164-0.171-24.259,4.097-29.579c2.88-3.59,7.333-5.614,12.876-2.305c4.172,2.491,4.73,9.74,4.513,17.549
												c-0.421,15.133,9.682,37.034,19.31,42.001c16.971,8.755,31.697,6.764,37.274,11.975
												C2238.798,1470.157,2258.249,1382.176,2248.015,1355.641z"></path>
                      </g>
                      <g>
                        <path fill="#594432" d="M2034.964,2371.726c5.776,5.192,51.756,21.258,64.792-0.773
												c1.953-3.3,1.228-14.039,1.228-14.039l-67.583,2.988L2034.964,2371.726z"></path>
                        <path fill="#594432" d="M2095.831,2366.53c-12.94,15.94-33.702,5.758-65.93-0.347
												c-36.653-6.943-52.947-4.753-75.174-24.105c-14.314-12.463-23.908-40.451-10.19-40.422
												c29.276,0.062,35.884,10.001,80.954,20.761c29.454,7.032,47.642-1.913,62.268,5.783
												C2099.182,2334.212,2106.479,2353.413,2095.831,2366.53z"></path>
                        <path fill="#211913" d="M2092.816,2367.258c-19.009,10.188-36.016,1.141-66.298-6.251
												c-36.621-8.94-44.631-7.214-69.025-23.752c-16.802-11.392-30.037-38.666-11.524-39.267
												c29.26-0.951,34.937,2.754,80.007,13.515c29.454,7.032,55.214,4.541,66.86,16.268
												C2102.517,2337.514,2106.382,2359.988,2092.816,2367.258z"></path>
                      </g>
                      <path fill="#756740" d="M2023.56,2325.029c-0.881,33.03,57.515,49.197,76.37,22.875
											c2.854-3.985,37.286-225.997,37.286-225.997l92.582-199.661l-95.021-36.715c0,0-77.265,180.101-84.223,214.89
											C2044.265,2131.871,2023.741,2318.241,2023.56,2325.029z"></path>
                      <path fill="#007042" d="M2280.885,1526.814c49.338,32.364,29.143,175.318,16.938,279.889
											c-7.027,60.205-2.449,90.902-4.319,98.266c-3.808,15-21.665,38.562-52.532,42.658
											c-68.234,9.052-106.038-12.57-120.232-34.019c-0.664-17.024,22.005-64.772,21.596-117.703
											c-0.442-57.216-10.379-82.071-16.197-109.064c-7.99-37.075-22.597-85.986,9.635-105.969
											c8.844-5.483,15.114-16.838,28.208-24.956c19.518-12.1,26.946-19.588,40.129-27.76
											C2230.34,1511.894,2263.445,1515.374,2280.885,1526.814z"></path>
                      <path fill="#419660" d="M2233.363,1501.566c-19.961-2.252-61.321,26.78-76.486,39.955
											c-12.271,10.662-43.24,44.118-41.325,63.264c10.347-14.005,63.641-52.6,77.528-56.034
											c27.281-6.747,43.658-21.029,50.144-28.017c1.601-1.725,2.188-4.032,0.135-5.186
											C2240.599,1513.993,2236.95,1501.97,2233.363,1501.566z"></path>
                    </g>
                  </g>
                  <g>
                    <path fill="#009649" d="M1946.868,1503.52c8.335,17.896,151.852,143.289,167.128,148.125
										c21.962,6.953,47.51-54.368,31.258-66.469c-24.522-18.259-104.678-84.99-138.21-107.894
										C1959.174,1444.584,1941.837,1492.718,1946.868,1503.52z"></path>
                  </g>
                  <g>
                    <path fill="#004d2e" d="M2016.1,1361.946c0.624-10.951,7.395-39.719,7.665-47.528
										c-3.789-13.391-48.888-19.782-51.193-7.006c-1.122,6.497-4.006,41.915-7.797,62.334L2016.1,1361.946z"></path>
                    <path fill="#f7cdb3" d="M2012.297,1331.254l-37.61-9.677c5.016-7.089,5.763-18.991,6.765-31.511l38.686,10.169
										L2012.297,1331.254z"></path>
                    <path fill="#f7cdb3" d="M2043.389,1267.653c-4.95,3.28-10.171,11.437-12.376,11.686
										c-2.577-1.971-0.684-8.221,4.634-17.905c6.305-11.482,9.051-12.295,10.36-18.289c2.696-12.808-27.23-17.381-30.719-17.209
										c-12.977,0.641-26.216,16.207-31.315,24.741c-5.715,9.564-4.22,24.585-3.004,31.922c0.801,4.834-0.146,13.801,0.926,17.441
										c4.347,14.76,16.495,25.478,22.216,20.949c4.663-4.627,8.961-6.33,15.277-8.343c11.784-3.756,22.286-17.613,23.111-20.815
										c1.806-7.012,9.985-16.594,13.912-19.812c1.034-0.847,1.244-2.391,0.38-3.411
										C2054.126,1265.464,2049.648,1263.505,2043.389,1267.653z"></path>
                    <path fill="#007d3e" d="M1972.572,1307.412c-11.912,45.328-36.404,185.522-24.82,197.272
										c19.292,19.569,53.81-2.461,58.484-27.807c6.721-36.443,16.298-126.822,17.529-162.459
										C2020.807,1328.477,1975.716,1322.327,1972.572,1307.412z"></path>
                  </g>
                </g>
              </g>
              <path fill="#f7cdb3" d="M2108.41,1312.013c2.823-4.123,9.752-8.411,9.99-10.264c-1.625-2.193-6.907-0.681-15.123,3.67
							c-9.741,5.159-10.46,7.458-15.519,8.483c-10.811,2.104-14.275-23.134-14.085-26.067c0.705-10.911,13.971-21.851,21.216-26.033
							c8.119-4.686,20.738-3.237,26.896-2.12c4.057,0.736,11.613,0.054,14.661,1.003c12.362,3.846,21.224,14.205,17.341,18.961
							c-3.952,3.865-5.44,7.459-7.215,12.747c-3.311,9.867-15.103,18.527-17.807,19.18c-5.923,1.43-14.089,8.189-16.846,11.452
							c-0.726,0.859-2.027,1.016-2.874,0.276C2106.431,1321.019,2104.839,1317.227,2108.41,1312.013z"></path>
            </g>
          </g>
          <g>
            <g opacity=".1">
              <ellipse cx="1239.041" cy="2370.989" rx="110.384" ry="190.567" transform="rotate(-82.554 1238.955 2370.893)"></ellipse>
            </g>
            <g>
              <g>
                <g>
                  <ellipse cx="1262.917" cy="2170.447" fill="#ffa6ff" rx="243.012" ry="242.995" transform="rotate(-88.82 1262.856 2170.407)"></ellipse>
                  <g>
                    <path fill="#fff" d="M1353.086,2291.208c-14.024,7.172-13.323,21.948-4.5,24.628
										c9.656,2.933,23.054-8.365,17.975-18.338C1363.175,2290.85,1353.179,2291.188,1353.086,2291.208L1353.086,2291.208z
										 M1351.612,2244.22c-11.919,3.307-13.106,16.384-4.469,20.949c3.93,2.077,8.794,2.356,8.839,2.356
										c0.007,0,1.079-0.344,3.176-2.268c0.283-0.26,6.911-6.472,4.072-14.858
										C1362.392,2247.93,1359.586,2242.384,1351.612,2244.22L1351.612,2244.22z M1218.182,2270.4
										c-1.21-7.276-2.836-16.976-3.915-24.273c21.754-7.399,22.17-7.541,33.183-12.096c8.526,0.354,17.079,0.433,25.618,0.236
										c0.344,26.358,0.5,51.915,0.433,75.503c-0.033,11.701-0.12,22.442-0.255,32.198c-10.586,0.244-21.195,0.083-31.751-0.482
										c-0.182-9.761-0.261-20.505-0.228-32.206c0.043-14.957,0.266-30.701,0.65-46.936c-0.12-0.006-0.241-0.013-0.361-0.02
										C1234.563,2264.804,1225.243,2268.123,1218.182,2270.4L1218.182,2270.4z M1352.591,2333.642
										c-44.438,8.765-49.283-17.703-39.318-33.758c4.65-7.491,12.11-12.038,15.695-14.223
										c-31.953-16.137-16.646-51.787,17.107-61.988c40.629-12.279,52.247,16.624,41.021,36.56
										c-2.91,5.167-6.2,8.177-8.377,10.169c0.007,0.113,0.013,0.226,0.019,0.339c26.001,2.506,24.373,31.632,3.685,48.744
										C1377.869,2323.252,1367.937,2330.1,1352.591,2333.642L1352.591,2333.642z M1291.959,2151.586
										c-107.891,14.616-178.098,142.816-87.126,210.353c90.568,67.237,242.795-16.882,220.112-121.633
										C1412.747,2183.977,1344.674,2147.008,1291.959,2151.586L1291.959,2151.586z"></path>
                    <path fill="#636363" d="M1273.068 2234.266c-8.538.197-17.092.118-25.618-.236-21.811 8.488-21.811 8.488-33.183 12.096 1.14 7.288 2.645 17.007 3.915 24.273 7.031-2.365 16.413-5.508 23.373-8.074.121.007.241.013.362.02-.385 16.234-.608 31.979-.65 46.936-.033 11.701.046 22.444.228 32.206 10.556.565 21.165.726 31.751.482.135-9.757.222-20.498.255-32.198C1273.568 2286.181 1273.412 2260.625 1273.068 2234.266L1273.068 2234.266zM1355.038 2315.882c-12.975 2.446-15.734-9.896-9.907-18.181.048-.069 5.101-6.839 9.48-6.431 7.379.687 11.671 3.546 12.758 8.5C1368.894 2306.726 1363.363 2313.954 1355.038 2315.882L1355.038 2315.882zM1355.981 2267.526c-19.803-2.124-15.103-16.475-9.984-20.645 7.735-6.301 18.988-2.337 17.906 8.917C1363.24 2262.711 1357.304 2267.267 1355.981 2267.526L1355.981 2267.526zM1350.198 2222.564c-44.795 12.055-45.619 48.651-26.945 60.151 2.019 1.243 3.956 2.016 5.512 2.637-14.28 11.784-20.798 17.163-19.639 31.657.611 7.643 7.171 17.053 23.645 18.423 41.71 3.468 77.826-35.996 61.836-57.159-4.891-6.474-13.153-7.27-15.868-7.532-.006-.113-.013-.226-.019-.339 21.079-19.283 14.746-47.542-11.108-49.568C1362.57 2220.439 1356.711 2221.021 1350.198 2222.564L1350.198 2222.564z"></path>
                  </g>
                  <path fill="#e3e3e3" d="M1283.731,2352.755c-121.009,0-223.889-76.469-263.744-183.605
									c-0.002,0.438-0.065,0.859-0.065,1.297c-0.001,134.212,108.792,243.012,242.994,243.012
									c99.904,0,185.646-60.34,222.989-146.528C1434.709,2319.782,1363.12,2352.755,1283.731,2352.755z"></path>
                </g>
                <path fill="#969696" d="M1442.427,2085.742c-14.344,22.983-61.811,19.243-106.02-8.354
								c-44.209-27.598-68.419-68.602-54.074-91.585c14.344-22.983,61.811-19.243,106.02,8.355
								C1432.562,2021.755,1456.772,2062.759,1442.427,2085.742z"></path>
              </g>
            </g>
          </g>
          <g>
            <g>
              <ellipse cx="1545.494" cy="2737.781" opacity=".1" rx="110.384" ry="190.567" transform="rotate(-82.554 1545.389 2737.67)"></ellipse>
            </g>
            <g>
              <g>
                <g>
                  <ellipse cx="1569.37" cy="2537.238" fill="#ffc77a" rx="243.012" ry="242.995" transform="rotate(-88.774 1569.422 2537.189)"></ellipse>
                  <g>
                    <path fill="#fff" d="M1503.29,2646.236c3.517-20.193,5.282-30.329,11.715-60.771
										c20.75,3.127,42.152,4.489,63.49,4.079c0.126,8.949,0.239,17.824,0.336,26.581c-14.922,0.287-29.873-0.259-44.629-1.635
										c-0.635,3.643-1.482,8.501-2.116,12.145c61.198,1.679,61.341,44.03,42.326,60.805c-20.007,17.651-57.277,11.922-76.489,1
										c1.431-5.897,3.336-13.762,4.818-19.646c23.25,13.004,53.067,11.789,48.04-6.489
										C1547.478,2650.293,1523.132,2646.937,1503.29,2646.236L1503.29,2646.236z M1417.322,2585.719
										c0.035-7.311,0.03-17.064,0.352-24.368c35.172-5.608,78.046,29.083,58.818,56.77c-5.39,7.761-13.957,8.482-18.075,8.829
										c-0.009,0.114-0.018,0.228-0.027,0.341c28.135,15,28.433,47.196,6.628,52.397c-16.853,4.019-43.643-7.166-59.721-24.934
										c1.129-5.543,2.627-12.938,3.993-18.427c17.367,18.791,39.826,25.7,40.052,12.322c0.06-3.553-1.539-12.587-17.646-19.731
										c-3.437-1.438-6.822-2.935-10.15-4.492c0.493-7.062,1.247-14.211,2.249-21.421c3.134,1.465,6.318,2.877,9.549,4.236
										c15.667,6.179,19.019-2.873,16.35-9.255C1445.971,2589.082,1429.95,2584.455,1417.322,2585.719L1417.322,2585.719z
										 M1508.167,2502.22c-98.5-16.235-174.458,77.452-107.493,172.393c65.797,93.286,199.241,88.95,219.669-7.138
										C1636.144,2593.153,1563.769,2514.309,1508.167,2502.22L1508.167,2502.22z"></path>
                    <path fill="#636363" d="M1449.667 2566.601c-17.131-6.275-27.398-5.982-31.993-5.25-.176 7.309-.463 17.058-.352 24.368 23.447-2.349 38.438 12.332 31.691 20.997-1.201 1.542-5.132 4.681-15.669.525-3.232-1.359-6.416-2.771-9.549-4.236-1.002 7.21-1.756 14.36-2.249 21.421 3.328 1.557 6.713 3.054 10.15 4.492 21.45 9.514 19.452 23.737 13.967 26.12-6.547 2.844-22.315-3.501-36.373-18.711-1.265 5.513-2.979 12.862-3.993 18.427 24.479 27.053 74.744 39.318 75.3 4.517.075-4.685-1.305-20.836-22.207-31.98.009-.114.018-.227.027-.341 27.51-2.316 28.688-34.006 8.017-50.899C1463.329 2573.513 1457.9 2569.814 1449.667 2566.601L1449.667 2566.601zM1578.495 2589.544c-21.339.41-42.74-.952-63.49-4.079-5.497 26.302-7.607 36.627-11.715 60.771 58.344 2.06 49.113 22.837 44.879 26.843-9.156 8.661-32.264 3.076-45.426-4.285-1.46 5.89-3.415 13.742-4.818 19.646 40.365 22.947 97.511 6.514 85.753-34.46-6.77-23.588-38.333-26.981-51.59-27.344l2.116-12.145c14.756 1.375 29.707 1.921 44.629 1.635C1578.734 2607.369 1578.621 2598.493 1578.495 2589.544L1578.495 2589.544z"></path>
                  </g>
                  <path fill="#e3e3e3" d="M1590.184,2719.546c-121.009,0-223.889-76.469-263.744-183.605
									c-0.002,0.438-0.065,0.859-0.065,1.297c-0.001,134.212,108.792,243.012,242.994,243.012
									c99.904,0,185.646-60.34,222.989-146.528C1741.162,2686.573,1669.573,2719.546,1590.184,2719.546z"></path>
                </g>
                <path fill="#969696" d="M1748.88,2452.534c-14.345,22.984-61.811,19.243-106.021-8.354
								c-44.209-27.598-68.419-68.602-54.074-91.585c14.344-22.983,61.811-19.243,106.02,8.355
								C1739.015,2388.546,1763.225,2429.55,1748.88,2452.534z"></path>
              </g>
            </g>
          </g>
          <g>
            <g opacity=".1">
              <ellipse cx="455.295" cy="2709.935" rx="81.681" ry="141.008" transform="rotate(-89.84 455.242 2709.888)"></ellipse>
              <ellipse cx="614.284" cy="2694.895" rx="81.681" ry="141.008" transform="rotate(-89.84 614.23 2694.852)"></ellipse>
              <g>
                <ellipse cx="655.557" cy="2736.197" rx="106.177" ry="183.304" transform="rotate(-82.554 655.493 2736.075)"></ellipse>
              </g>
            </g>
            <g>
              <g>
                <path fill="#3b3b3b" d="M562.096,2678.46c9.369,18.193,28.495,18.682,58.09,25.539
								c45.695,10.588,52.437,15.041,74.847,11.431c18.57-2.99,31.505-23.579,22.662-30.375
								c-20.367-15.653-43.008-17.227-82.142-28.234c-25.575-7.193-39.754-11.993-53.685-7.981
								C570.291,2652.173,554.812,2664.316,562.096,2678.46z"></path>
                <path fill="#9e6846" d="M562.148,2671.65c5.414,19.735,29.745,20.047,59.34,26.905
								c45.695,10.588,49.626,14.2,71.573,10.276c15.66-2.8,34.033-18.325,25.19-25.121c-20.367-15.652-41.995-15.819-81.129-26.825
								c-25.574-7.192-38.709-13.811-52.64-9.8C572.904,2650.418,558.226,2657.354,562.148,2671.65z"></path>
                <path fill="#3b3b3b" d="M378.066,2697.033c1.372,18.133,18.12,23.251,41.713,36.481
								c36.428,20.428,40.702,25.957,61.918,28.315c17.579,1.954,38.389-12.563,33.146-20.648
								c-12.076-18.62-33.043-25.774-63.504-44.956c-19.906-12.535-30.633-20.192-44.494-20.119
								C395.326,2676.167,377,2682.936,378.066,2697.033z"></path>
                <path fill="#9e6846" d="M379.495,2689.754c-5.583,17.158,19.915,26.111,43.508,39.341
								c36.428,20.427,38.534,24.536,59.458,26.506c14.931,1.406,37.106-7.597,31.863-15.682
								c-12.076-18.62-31.161-24.072-61.621-43.254c-19.906-12.535-29.016-21.519-42.877-21.446
								C398.307,2675.28,383.687,2676.871,379.495,2689.754z"></path>
                <path fill="#4f4f4f" d="M565.881,2201.542c0,0,55.096,52.122,96.855,229.824c1.979,5.794,2.195,12.047,1.847,18.159
								c0,0-21.724,192.356-26.34,207.665c-9.474,31.415-74.153,34.649-73.851,0.044l9.867-199.819
								c0,0-99.213-163.543-114.621-212.307C468.811,2217.904,565.881,2201.542,565.881,2201.542z"></path>
                <path fill="#5e5e5e" d="M498.872,2232.815c0,0,17.728,171.615,16.38,233.803
								c1.348,38.571-56.586,226.357-56.586,226.357c-10.677,35.859-68.292,20.413-78.929-4.09c0,0,34.438-168.574,33.571-221.798
								c-38.099-119.386-49.746-224.956-49.746-224.956L498.872,2232.815z"></path>
                <path fill="#f0c7ad" d="M781.17,2047.139c-2.889,2.412-10.899,1.307-10.899,1.307
								c-2.696,0.001-7.209-0.126-8.962,1.815c-0.091,0.956,14.619-0.342,29.911,3.771c7.664,2.062,13.853,2.821,16.749,4.628
								c3.551,3.781,0.955,12.87-0.149,17.822c-1.307,5.864-8.546,11.277-16.393,15.939c-8.348,4.959-33.186,2.311-41.046,2.445
								c-8.809,0.151-15.406-2.138-19.961-5.863c-4.92-4.024-10.137-2.445-14.66-3.478c0.334-6.137,1.571-23.605,1.805-27.9
								c10.687,0.495,13.472-9.028,22.71-14.262c8.507-4.82,21.478-5.61,24.059-5.193c4.599,0.742,18.414,2.733,18.414,2.733
								C785.675,2043.111,782.657,2045.897,781.17,2047.139z"></path>
                <path fill="#d1d1d1" d="M521.546,1854.951l49.153,129.948c0,0,126.413,36.112,161.759,53.492
								c2.122,1.044,1.601,3.422,2.073,5.739c3.349,16.43-0.973,31.808-19.322,49.033c-1.771,1.663-3.594,3.211-5.811,2.216
								c-34.798-15.611-114.254-29.35-149.971-44.147c-9.424-3.904-17.541-10.415-24.078-18.246
								c-26.083-31.245-104.331-124.98-104.331-124.98c-19.245-23.054-14.412-57.681,10.411-74.583h0
								C465.01,1817.366,506.04,1831.003,521.546,1854.951z"></path>
                <path fill="#fff" d="M302.025,1973.157c0,0,20.849,79.824,46.931,177.313
								c9.909,37.037-4.618,66.569,11.062,102.185c29.271,66.486,194.89,21.944,220.755-27.287
								c-52.118-178.703-51.582-346.239-51.582-346.239c-8.919-57.879-77.998-70.644-132.046-48.106
								c-20.958,8.74-45.844,24.99-64.887,37.894C298.246,1891.964,295.767,1932.552,302.025,1973.157z"></path>
                <path fill="#d9b49c" d="M405.891,1876.15c26.536,6.425,64.269-22.583,56.369-72.882l-19.047-57.735l-71.623,3.614
								l4.85,96.132C379.725,1859.92,388.265,1871.882,405.891,1876.15z"></path>
                <path fill="#f0c7ad" d="M421.955,1663.673c40.45-2.041,82.31,21.127,82.723,78.988
								c0.235,32.939-7.27,84.603-27.165,104.885c-18.053,18.405-73.571-8.226-97.558-36.548
								c-17.459-20.615-23.798-37.262-27.022-59.993C344.807,1693.716,381.505,1665.715,421.955,1663.673z"></path>
                <path fill="#57463b" d="M422.26 1656.465c33.879-1.71 100.054 23.111 81.797 65.168-.752 1.732-9.188-13.854-24.084-20.929-13.161-6.251-28.721.133-40.069 9.917-8.958 7.723-19.523 47.698-21.972 56.915-4.181 1.892-8.262 3.684-12.168 5.338-13.869-1.055-4.427-22.555-11.706-32.086-4.094-5.36-12.078-4.61-15.948-3.143-13.341 5.059.511 37.227 3.763 54.036 1.276 6.597-.222 11.797-4.968 13.353-4.081 1.337-5.422 1.881-7.202-1.059-10-16.518-18.067-36.299-20.461-53.176C341.116 1693.508 381.81 1658.506 422.26 1656.465zM457.598 1834.022c-10.645.537-24.03 10.373-50.076.382-.526 5.334 32.4 20.296 44.821 20.425 17.525.182 19.475-1.915 25.781-7.332 6.994-6.008 11.531-19.259 11.531-19.259S475.032 1833.142 457.598 1834.022z"></path>
                <path fill="#57463b" d="M461.379,1836.52c8.749-0.442,26.78-4.926,26.78-4.926c3.67-7.124,9.54-23.433,10.592-32.389
								c0,0-2.178-4.612-10.206-2.552c-7.895,2.026-17.204,8.585-21.352,13.755C462.532,1816.215,452.629,1836.962,461.379,1836.52z
								 M472.83,1816.554c1.886-2.667,9.336-9.853,15.251-10.875c5.187-0.896,3.727,7.907,3.578,9.006
								c-0.402,2.96-1.772,6.234-2.951,9.196c-1.171,2.941-3.707,4.63-6.833,5.128c-3.303,0.526-7.474,1.03-10.057,0.232
								C466.852,1827.709,470.108,1820.403,472.83,1816.554z"></path>
                <path fill="#f0c7ad" d="M537.391,2238.879c-3.664,0.859-10.326-3.723-10.326-3.723c-2.41-1.209-6.386-3.348-8.823-2.4
								c-0.511,0.813,13.218,6.255,25.037,16.794c5.924,5.282,11.114,8.739,12.891,11.652c1.477,4.973-4.922,11.93-8.13,15.859
								c-3.8,4.654-12.698,6.242-21.802,6.887c-9.685,0.686-30.693-12.829-37.778-16.236c-7.94-3.818-12.809-8.825-15.207-14.197
								c-2.591-5.803-7.962-6.735-11.541-9.688c3.053-5.334,11.996-20.39,14.133-24.123c9.328,5.238,16.091-2.022,26.694-2.553
								c9.765-0.49,21.711,4.625,23.831,6.156c3.777,2.727,15.23,10.706,15.23,10.706
								C543.224,2237.302,539.276,2238.437,537.391,2238.879z"></path>
                <path fill="#dedede" d="M372.14,1938.176l8.76,149.416c0,0,93.097,90.214,116.885,121.608
								c1.428,1.885-0.104,3.776-0.722,6.059c-4.38,16.186-22.524,34.961-46.651,42.119c-2.329,0.691-4.653,1.256-6.187-0.627
								c-24.092-29.568-81.551-84.477-106.83-113.731c-6.67-7.718-11.002-17.179-13.33-27.112
								c-9.288-39.628-25.322-157.523-25.322-157.523c-6.853-29.24,1.173-59.003,30.941-62.967l0,0
								C357.962,1891.652,369.029,1909.816,372.14,1938.176z"></path>
                <polygon fill="#d9b49c" points="451.576 1857.552 466.174 1919.097 428.456 1865.565"></polygon>
              </g>
              <g>
                <g>
                  <g>
                    <g>
                      <ellipse cx="685.061" cy="2106.824" fill="#009649" rx="233.749" ry="233.733" transform="rotate(-88.865 685.066 2106.833)"></ellipse>
                      <path fill="#e3e3e3" d="M705.082,2282.183c-116.397,0-215.355-73.555-253.691-176.607
											c-0.002,0.421-0.063,0.826-0.063,1.247c-0.001,129.096,104.645,233.75,233.732,233.75
											c96.096,0,178.57-58.04,214.489-140.942C850.305,2250.467,781.445,2282.183,705.082,2282.183z"></path>
                      <g>
                        <g>
                          <path fill="#fff" d="M790.777,2089.449c-4.413-9.818-9.236-19.516-14.43-29.028
													c10.813-6.16,21.311-12.197,31.375-18.046c13.51-7.851,25.521-14.949,35.992-21.254
													c-0.059-0.109-0.119-0.218-0.179-0.327c-5.534-5.048-12.907-11.789-18.594-16.664
													c3.693-3.847,8.621-8.973,12.288-12.844c17.094,15.795,17.094,15.795,25.014,24.164
													c4.086,7.699,7.915,15.517,11.466,23.417c-13.062,9.604-30.216,20.672-51.35,32.954
													C812.296,2077.67,801.727,2083.564,790.777,2089.449L790.777,2089.449z M862.485,2166.688
													c47.67-24.133,68.642-105.815,22.516-184.439c-62.396-91.857-167.913-89.521-188.172,4.166
													C672.311,2099.801,787.355,2204.722,862.485,2166.688L862.485,2166.688z"></path>
                          <path fill="#636363" d="M790.777,2089.449c-4.413-9.818-9.236-19.516-14.43-29.028
													c10.813-6.16,21.311-12.197,31.375-18.046c13.51-7.851,25.521-14.949,35.992-21.254
													c-0.059-0.109-0.119-0.218-0.179-0.327c-5.534-5.048-12.907-11.789-18.594-16.664
													c3.693-3.847,8.621-8.973,12.288-12.844c17.094,15.795,17.094,15.795,25.014,24.164
													c4.086,7.699,7.915,15.517,11.466,23.417c-13.062,9.604-30.216,20.672-51.35,32.954
													C812.296,2077.67,801.727,2083.564,790.777,2089.449L790.777,2089.449z"></path>
                        </g>
                      </g>
                    </g>
                    <path fill="#969696" d="M857.729,2025.348c-13.798,22.107-59.455,18.509-101.979-8.036
										c-42.524-26.546-65.811-65.987-52.013-88.094c13.797-22.108,59.455-18.51,101.979,8.036
										C848.24,1963.8,871.527,2003.241,857.729,2025.348z"></path>
                  </g>
                </g>
              </g>
            </g>
          </g>
        </g>
      </g>
    </g>
  </switch>
</svg>
